<?xml version="1.0" encoding="utf-8"?>
<svg viewBox="0 0 1587.4 1587.4" height="1587.4" width="1587.4" id="svg2" version="1.1" xmlns="http://www.w3.org/2000/svg" xmlns:bx="https://boxy-svg.com">
  <defs id="defs6">
    <clipPath id="clipPath18" clipPathUnits="userSpaceOnUse">
      <path id="path16" d="M 0,1190.551 H 1190.55 V 0 H 0 Z"/>
    </clipPath>
    <style bx:fonts="Armata">@import url(https://fonts.googleapis.com/css2?family=Armata%3Aital%2Cwght%400%2C400&amp;display=swap);</style>
  </defs>
  <g transform="matrix(1.333333, 0, 0, -1.333333, 0.000157, 1587.400024)" id="g10">
    <g id="g12">
      <g clip-path="url(#clipPath18)" id="g14">
        <g transform="translate(786.1807,915.9967)" id="g20">
          <path id="path22" style="fill-opacity: 1; fill-rule: nonzero; stroke: none;" d="M 0,0 C 0,40.557 -12.632,78.161 -34.168,109.106 L -70.484,31.698 c 2.667,-10.224 4.052,-20.854 4.052,-31.698 0,-33.343 -12.985,-64.688 -36.562,-88.265 -10.458,-10.458 -22.446,-18.826 -35.458,-24.907 -0.222,-0.104 -0.446,-0.204 -0.671,-0.308 -16.142,-7.426 -33.835,-11.346 -52.135,-11.346 -18.362,0 -36.116,3.947 -52.304,11.425 -0.167,0.076 -0.336,0.152 -0.503,0.229 -13.01,6.081 -25,14.449 -35.456,24.907 -23.576,23.577 -36.561,54.922 -36.561,88.265 0,10.844 1.383,21.474 4.05,31.698 l -36.317,77.408 C -369.882,78.161 -382.514,40.557 -382.514,0 c 0,-105.63 85.628,-191.258 191.256,-191.258 C -85.628,-191.258 0,-105.63 0,0 m -81.701,59.923 32.148,68.524 c -15.28,16.848 -33.526,30.953 -53.91,41.504 l -28.24,-60.193 -9.429,-20.099 -50.126,-106.839 -50.125,106.839 -9.429,20.099 -28.24,60.193 c -20.385,-10.551 -38.629,-24.656 -53.91,-41.504 l 32.149,-68.524 12.425,-26.484 36.988,-78.835 23.776,-50.682 c 11.467,-4.333 23.742,-6.602 36.366,-6.602 12.625,0 24.9,2.269 36.367,6.602 l 23.777,50.682 36.986,78.835 z"/>
        </g>
        <g transform="translate(426.3267,604.4352)" id="g24">
          <path id="path26" style="fill-opacity: 1; fill-rule: nonzero; stroke: none;" d="m 0,0 c 6.735,0 12.19,1.015 16.365,3.048 4.175,2.031 7.223,5.259 9.144,9.686 1.92,4.424 2.88,10.198 2.88,17.324 0,7.125 -0.96,12.901 -2.88,17.325 -1.921,4.427 -4.969,7.653 -9.144,9.686 C 12.19,59.1 6.735,60.117 0,60.117 H -22.627 V 0 Z M -10.603,50.098 H 0 c 4.175,0 7.432,-0.626 9.77,-1.88 2.338,-1.251 3.992,-3.339 4.967,-6.261 0.974,-2.923 1.461,-6.889 1.461,-11.899 0,-5.009 -0.487,-8.975 -1.461,-11.898 C 13.762,15.238 12.108,13.15 9.77,11.898 7.432,10.645 4.175,10.02 0,10.02 H -10.603 Z M 68.591,-0.376 c 2.978,0.418 5.747,0.988 8.31,1.712 V 11.689 C 74.73,10.854 72.35,10.2 69.76,9.728 67.173,9.254 64.653,9.018 62.205,9.018 c -4.288,0 -7.474,0.877 -9.56,2.629 -2.089,1.754 -3.327,4.689 -3.716,8.809 h 30.058 v 3.591 c 0,16.92 -6.929,25.383 -20.79,25.383 -6.959,0 -12.247,-2.158 -15.864,-6.471 -3.619,-4.315 -5.428,-10.618 -5.428,-18.912 0,-8.572 1.893,-14.891 5.678,-18.955 3.785,-4.063 9.657,-6.094 17.618,-6.094 2.615,0 5.413,0.209 8.39,0.626 M 64.292,37.03 c 1.391,-1.586 2.282,-4.246 2.672,-7.973 H 48.929 c 0.389,3.785 1.293,6.457 2.714,8.015 1.418,1.557 3.576,2.338 6.47,2.338 2.728,0 4.787,-0.793 6.179,-2.38 M 116.81,3.841 117.144,0 h 10.438 v 48.428 h -11.69 V 12.524 c -3.173,-1.558 -6.263,-2.337 -9.269,-2.337 -2.393,0 -4.147,0.583 -5.259,1.752 -1.115,1.169 -1.67,3.035 -1.67,5.595 V 48.428 H 88.005 V 15.279 c 0,-5.065 1.321,-9.018 3.965,-11.857 2.643,-2.838 6.275,-4.257 10.897,-4.257 4.451,0 9.1,1.557 13.943,4.676 m 54.773,-2.839 v 10.019 c -1.783,-0.556 -3.34,-0.959 -4.675,-1.211 -1.336,-0.249 -2.701,-0.376 -4.093,-0.376 -2.338,0 -3.952,0.515 -4.842,1.545 -0.891,1.029 -1.336,2.853 -1.336,5.469 v 21.709 h 14.946 v 10.271 h -14.946 v 11.689 l -11.69,-1.086 V 48.428 h -9.518 V 38.157 h 9.518 V 15.112 c 0,-5.622 1.169,-9.686 3.507,-12.19 2.338,-2.505 6.15,-3.757 11.44,-3.757 3.895,0 7.791,0.612 11.689,1.837 m 40.535,1.67 c 3.2,2.449 4.801,6.261 4.801,11.438 0,4.397 -1.071,7.793 -3.213,10.186 -2.144,2.394 -5.637,4.037 -10.48,4.928 l -6.262,1.168 c -3.228,0.556 -4.842,2.116 -4.842,4.676 0,1.557 0.639,2.672 1.919,3.34 1.28,0.668 3.369,1.002 6.263,1.002 2.505,0 4.995,-0.238 7.473,-0.71 2.476,-0.474 4.745,-1.127 6.804,-1.962 v 10.354 c -4.898,1.557 -9.797,2.338 -14.695,2.338 -6.68,0 -11.647,-1.225 -14.903,-3.674 -3.257,-2.451 -4.885,-6.235 -4.885,-11.356 0,-4.175 1.085,-7.418 3.256,-9.727 2.171,-2.311 5.677,-3.939 10.52,-4.885 l 6.263,-1.169 c 3.227,-0.557 4.843,-2.116 4.843,-4.676 0,-1.726 -0.641,-2.977 -1.921,-3.756 -1.281,-0.781 -3.396,-1.169 -6.346,-1.169 -2.672,0 -5.442,0.236 -8.307,0.71 -2.868,0.472 -5.358,1.071 -7.473,1.794 V 1.252 c 2.616,-0.724 5.344,-1.279 8.183,-1.67 2.839,-0.388 5.564,-0.584 8.182,-0.584 6.68,0 11.619,1.223 14.82,3.674 m 38.867,-3.465 c 1.223,0.139 2.574,0.375 4.049,0.709 1.474,0.334 3.27,0.806 5.386,1.42 v 10.687 c -3.062,-0.947 -5.415,-1.6 -7.056,-1.961 -1.641,-0.363 -3.242,-0.544 -4.801,-0.544 -4.23,0 -7.334,1.183 -9.309,3.55 -1.977,2.364 -2.964,6.08 -2.964,11.146 0,5.121 0.904,8.85 2.712,11.188 1.809,2.338 4.69,3.507 8.644,3.507 4.284,0 8.516,-0.752 12.691,-2.255 v 10.687 c -2.395,0.78 -4.622,1.323 -6.68,1.63 -2.061,0.305 -4.315,0.459 -6.764,0.459 -15.029,0 -22.544,-8.406 -22.544,-25.216 0,-8.63 1.837,-14.987 5.511,-19.079 3.674,-4.091 9.379,-6.137 17.118,-6.137 1.445,0 2.781,0.071 4.007,0.209 M 281.953,0 v 35.819 c 3.394,1.614 6.68,2.422 9.853,2.422 2.505,0 4.326,-0.585 5.468,-1.754 1.141,-1.169 1.712,-3.035 1.712,-5.594 V 0 h 11.69 v 33.147 c 0,5.121 -1.351,9.087 -4.05,11.899 -2.701,2.81 -6.444,4.216 -11.231,4.216 -4.286,0 -8.766,-1.391 -13.442,-4.174 V 66.044 L 270.264,65.042 V 0 Z m 69.594,-0.376 c 2.977,0.418 5.746,0.988 8.307,1.712 v 10.353 c -2.171,-0.835 -4.551,-1.489 -7.138,-1.961 -2.59,-0.474 -5.108,-0.71 -7.557,-0.71 -4.286,0 -7.473,0.877 -9.561,2.629 -2.086,1.754 -3.326,4.689 -3.714,8.809 h 30.058 v 3.591 c 0,16.92 -6.931,25.383 -20.791,25.383 -6.958,0 -12.246,-2.158 -15.864,-6.471 -3.618,-4.315 -5.427,-10.618 -5.427,-18.912 0,-8.572 1.891,-14.891 5.678,-18.955 3.784,-4.063 9.657,-6.094 17.617,-6.094 2.616,0 5.413,0.209 8.392,0.626 m -4.3,37.406 c 1.39,-1.586 2.281,-4.246 2.672,-7.973 h -18.035 c 0.388,3.785 1.293,6.457 2.712,8.015 1.42,1.557 3.576,2.338 6.472,2.338 2.726,0 4.786,-0.793 6.179,-2.38"/>
        </g>
        <g transform="translate(204.229,504.7917)" id="g28">
          <path id="path30" style="fill-opacity: 1; fill-rule: nonzero; stroke: none;" d="M 0,0 22.126,60.117 H 10.102 L -5.595,15.196 -21.292,60.117 H -34.151 L -12.023,0 Z m 53.228,-0.376 c 2.977,0.418 5.747,0.988 8.308,1.712 V 11.689 C 59.365,10.854 56.985,10.2 54.397,9.728 51.808,9.254 49.29,9.018 46.84,9.018 c -4.287,0 -7.472,0.877 -9.56,2.629 -2.087,1.754 -3.327,4.689 -3.716,8.809 h 30.058 v 3.591 c 0,16.92 -6.929,25.383 -20.789,25.383 -6.96,0 -12.246,-2.158 -15.865,-6.471 -3.619,-4.315 -5.428,-10.618 -5.428,-18.912 0,-8.572 1.893,-14.891 5.678,-18.955 3.785,-4.063 9.657,-6.094 17.619,-6.094 2.616,0 5.412,0.209 8.391,0.626 M 48.927,37.03 c 1.392,-1.586 2.282,-4.246 2.672,-7.973 H 33.564 c 0.389,3.785 1.295,6.457 2.714,8.015 1.42,1.557 3.576,2.338 6.47,2.338 2.728,0 4.787,-0.793 6.179,-2.38 M 85.164,0 v 34.066 c 2.058,1.169 4.133,2.004 6.221,2.505 2.087,0.501 4.438,0.751 7.054,0.751 1.392,0 2.81,-0.083 4.259,-0.25 v 11.356 c -0.89,0.167 -1.921,0.249 -3.09,0.249 -2.672,0 -5.148,-0.432 -7.43,-1.294 -2.284,-0.863 -4.872,-2.38 -7.766,-4.55 l -0.501,5.595 H 73.475 V 0 Z m 36.32,0 v 35.986 c 3.006,1.503 5.955,2.255 8.851,2.255 2.28,0 3.894,-0.585 4.842,-1.754 0.945,-1.169 1.419,-2.977 1.419,-5.427 V 0 h 11.689 v 33.147 c 0,0.946 -0.055,1.866 -0.167,2.756 3.062,1.557 6.068,2.338 9.018,2.338 2.282,0 3.897,-0.585 4.843,-1.754 0.946,-1.169 1.42,-2.977 1.42,-5.427 V 0 h 11.69 v 33.147 c 0,3.897 -0.697,7.027 -2.089,9.394 -1.391,2.365 -3.186,4.077 -5.386,5.134 -2.199,1.058 -4.495,1.588 -6.887,1.588 -2.618,0 -5.176,-0.459 -7.681,-1.378 -2.505,-0.918 -5.067,-2.296 -7.682,-4.133 -1.336,1.948 -3.021,3.353 -5.052,4.217 -2.033,0.862 -4.133,1.294 -6.303,1.294 -2.284,0 -4.524,-0.39 -6.722,-1.169 -2.2,-0.781 -4.44,-1.893 -6.722,-3.34 l -0.334,3.674 H 109.795 V 0 Z m 107.04,24.214 c 0,16.81 -7.32,25.216 -21.96,25.216 -14.64,0 -21.959,-8.406 -21.959,-25.216 0,-16.812 7.319,-25.216 21.959,-25.216 14.64,0 21.96,8.404 21.96,25.216 M 198.842,12.858 c -1.532,2.225 -2.298,6.012 -2.298,11.356 0,5.343 0.766,9.129 2.298,11.355 1.53,2.225 4.104,3.34 7.722,3.34 3.618,0 6.192,-1.115 7.724,-3.34 1.53,-2.226 2.295,-6.012 2.295,-11.355 0,-5.344 -0.765,-9.131 -2.295,-11.356 -1.532,-2.226 -4.106,-3.339 -7.724,-3.339 -3.618,0 -6.192,1.113 -7.722,3.339 m 5.135,52.436 H 191.452 V 54.44 h 12.525 z m 17.701,0 H 209.154 V 54.44 h 12.524 z m 57.361,-33.565 c 0,5.23 -1.81,8.85 -5.429,10.854 l 10.438,0.083 v 8.516 l -24.214,-2.171 h -1.335 c -14.084,0 -21.126,-5.482 -21.126,-16.448 0,-6.011 2.004,-10.382 6.012,-13.109 -2.004,-1.28 -3.451,-2.659 -4.342,-4.133 -0.89,-1.476 -1.336,-3.186 -1.336,-5.134 0,-3.173 1.198,-5.596 3.591,-7.265 -4.898,-2.617 -7.347,-6.095 -7.347,-10.437 0,-4.675 1.919,-8.14 5.76,-10.395 3.841,-2.254 9.714,-3.382 17.618,-3.382 6.346,0 11.452,0.543 15.322,1.629 3.867,1.085 6.679,2.81 8.434,5.177 1.752,2.366 2.629,5.468 2.629,9.309 0,3.173 -0.641,5.732 -1.921,7.682 -1.28,1.948 -3.438,3.451 -6.47,4.509 -3.035,1.056 -7.195,1.781 -12.483,2.171 l -10.438,0.835 c -3.005,0.22 -4.508,1.389 -4.508,3.506 0,1.336 0.556,2.45 1.67,3.34 2.505,-0.614 5.455,-0.919 8.85,-0.919 13.749,0 20.625,5.261 20.625,15.782 m -27.512,-4.761 c -1.365,1.114 -2.046,2.924 -2.046,5.428 0,2.505 0.695,4.342 2.086,5.511 1.392,1.169 3.619,1.753 6.68,1.753 3.062,0 5.303,-0.584 6.722,-1.753 1.42,-1.169 2.129,-3.006 2.129,-5.511 0,-2.504 -0.709,-4.314 -2.129,-5.428 -1.419,-1.113 -3.687,-1.67 -6.804,-1.67 -3.062,0 -5.275,0.557 -6.638,1.67 M 247.393,0.501 C 248.84,0.221 250.51,0 252.402,-0.167 l 10.438,-0.835 c 3.507,-0.278 5.872,-0.752 7.097,-1.42 1.224,-0.668 1.836,-1.864 1.836,-3.59 0,-1.558 -0.416,-2.768 -1.251,-3.631 -0.835,-0.864 -2.284,-1.475 -4.342,-1.837 -2.059,-0.363 -4.956,-0.543 -8.683,-0.543 -4.565,0 -7.836,0.529 -9.811,1.585 -1.977,1.06 -2.965,2.785 -2.965,5.177 0,2.284 0.89,4.203 2.672,5.762 m 73.851,-0.877 c 2.977,0.418 5.748,0.988 8.309,1.712 v 10.353 c -2.171,-0.835 -4.551,-1.489 -7.139,-1.961 -2.589,-0.474 -5.109,-0.71 -7.557,-0.71 -4.287,0 -7.472,0.877 -9.56,2.629 -2.087,1.754 -3.327,4.689 -3.716,8.809 h 30.058 v 3.591 c 0,16.92 -6.929,25.383 -20.789,25.383 -6.96,0 -12.248,-2.158 -15.865,-6.471 -3.619,-4.315 -5.428,-10.618 -5.428,-18.912 0,-8.572 1.893,-14.891 5.678,-18.955 3.785,-4.063 9.657,-6.094 17.619,-6.094 2.616,0 5.412,0.209 8.39,0.626 m -4.3,37.406 c 1.392,-1.586 2.282,-4.246 2.672,-7.973 h -18.035 c 0.389,3.785 1.295,6.457 2.714,8.015 1.418,1.557 3.576,2.338 6.47,2.338 2.728,0 4.787,-0.793 6.179,-2.38 M 353.348,0 v 35.819 c 3.394,1.614 6.68,2.422 9.853,2.422 2.505,0 4.326,-0.585 5.468,-1.754 1.141,-1.169 1.712,-3.035 1.712,-5.594 V 0 h 11.69 v 33.147 c 0,5.121 -1.351,9.087 -4.05,11.899 -2.701,2.81 -6.444,4.217 -11.231,4.217 -2.338,0 -4.662,-0.376 -6.971,-1.127 -2.311,-0.753 -4.774,-1.935 -7.39,-3.549 l -0.334,3.841 H 341.659 V 0 Z m 70.763,2.672 c 3.199,2.449 4.8,6.261 4.8,11.438 0,4.397 -1.073,7.793 -3.215,10.187 -2.142,2.393 -5.635,4.036 -10.478,4.927 l -6.261,1.169 c -3.231,0.554 -4.843,2.115 -4.843,4.675 0,1.557 0.639,2.672 1.919,3.34 1.281,0.668 3.367,1.002 6.263,1.002 2.505,0 4.995,-0.238 7.473,-0.71 2.476,-0.474 4.745,-1.127 6.804,-1.962 v 10.354 c -4.898,1.557 -9.797,2.338 -14.695,2.338 -6.68,0 -11.647,-1.225 -14.904,-3.674 -3.256,-2.451 -4.884,-6.235 -4.884,-11.356 0,-4.174 1.085,-7.418 3.256,-9.727 2.171,-2.311 5.677,-3.939 10.52,-4.885 l 6.263,-1.169 c 3.227,-0.557 4.843,-2.116 4.843,-4.676 0,-1.726 -0.641,-2.977 -1.921,-3.756 -1.28,-0.781 -3.396,-1.169 -6.346,-1.169 -2.672,0 -5.441,0.236 -8.307,0.71 -2.868,0.472 -5.359,1.071 -7.473,1.794 V 1.252 c 2.615,-0.724 5.344,-1.279 8.183,-1.67 2.839,-0.388 5.565,-0.584 8.182,-0.584 6.68,0 11.619,1.223 14.821,3.674 M 448.783,0 l 0.334,3.841 c 2.672,-1.726 5.037,-2.937 7.097,-3.632 2.059,-0.696 4.23,-1.044 6.512,-1.044 6.012,0 10.605,2.142 13.778,6.428 3.173,4.287 4.758,10.492 4.758,18.621 0,8.127 -1.585,14.332 -4.758,18.619 -3.173,4.286 -7.766,6.43 -13.778,6.43 -2.171,0 -4.23,-0.307 -6.178,-0.92 -1.949,-0.612 -4.12,-1.67 -6.513,-3.172 v 20.873 l -11.69,-1.002 V 0 Z m 18.327,35.151 c 1.474,-2.171 2.213,-5.816 2.213,-10.937 0,-5.123 -0.739,-8.768 -2.213,-10.939 -1.476,-2.171 -3.994,-3.255 -7.557,-3.255 -1.502,0 -3.005,0.194 -4.508,0.583 -1.503,0.39 -3.173,1.058 -5.01,2.004 v 23.212 c 1.837,0.946 3.507,1.614 5.01,2.004 1.503,0.39 3.006,0.585 4.508,0.585 3.563,0 6.081,-1.086 7.557,-3.257 m 53.77,-35.527 c 2.977,0.418 5.747,0.988 8.309,1.712 v 10.353 c -2.171,-0.835 -4.551,-1.489 -7.14,-1.961 -2.588,-0.474 -5.108,-0.71 -7.555,-0.71 -4.288,0 -7.474,0.877 -9.561,2.629 -2.088,1.754 -3.326,4.689 -3.716,8.809 h 30.059 v 3.591 c 0,16.92 -6.93,25.383 -20.79,25.383 -6.96,0 -12.248,-2.158 -15.864,-6.471 -3.62,-4.315 -5.428,-10.618 -5.428,-18.912 0,-8.572 1.892,-14.891 5.677,-18.955 3.785,-4.063 9.657,-6.094 17.619,-6.094 2.614,0 5.413,0.209 8.39,0.626 m -4.3,37.406 c 1.392,-1.586 2.282,-4.246 2.672,-7.973 h -18.035 c 0.39,3.785 1.294,6.457 2.714,8.015 1.419,1.557 3.576,2.338 6.47,2.338 2.728,0 4.788,-0.793 6.179,-2.38 M 553.82,0 v 34.066 c 2.057,1.169 4.132,2.004 6.219,2.505 2.088,0.501 4.439,0.751 7.055,0.751 1.392,0 2.811,-0.083 4.26,-0.25 v 11.356 c -0.893,0.167 -1.922,0.249 -3.091,0.249 -2.672,0 -5.149,-0.432 -7.43,-1.294 -2.284,-0.863 -4.871,-2.38 -7.766,-4.55 l -0.501,5.595 H 542.13 V 0 Z m 42.748,0.292 c 2.338,0.752 4.896,1.99 7.681,3.716 L 604.583,0 h 10.437 v 31.729 c 0,6.289 -1.573,10.812 -4.717,13.568 -3.146,2.755 -8.28,4.133 -15.405,4.133 -2.394,0 -5.052,-0.21 -7.974,-0.626 -2.923,-0.419 -5.608,-0.962 -8.057,-1.63 V 36.905 c 2.115,0.78 4.48,1.363 7.098,1.753 2.614,0.389 5.176,0.585 7.68,0.585 3.395,0 5.873,-0.599 7.432,-1.795 1.556,-1.197 2.337,-3.103 2.337,-5.719 v -4.175 c -2.003,0.388 -3.798,0.652 -5.385,0.792 -1.586,0.139 -3.104,0.21 -4.551,0.21 -6.346,0 -11.022,-1.212 -14.028,-3.632 -3.006,-2.422 -4.507,-6.221 -4.507,-11.398 0,-4.731 1.223,-8.307 3.672,-10.729 2.449,-2.421 6.041,-3.632 10.772,-3.632 2.449,0 4.843,0.376 7.181,1.127 m -8.058,18.244 c 1.14,0.889 2.992,1.336 5.553,1.336 1.223,0 2.656,-0.098 4.299,-0.292 1.642,-0.195 3.327,-0.46 5.052,-0.794 v -7.097 c -2.393,-1.057 -4.454,-1.809 -6.178,-2.255 -1.726,-0.445 -3.313,-0.668 -4.76,-0.668 -3.786,0 -5.678,1.837 -5.678,5.511 0,1.948 0.57,3.369 1.712,4.259 M 658.437,1.002 v 10.019 c -1.781,-0.556 -3.339,-0.959 -4.675,-1.211 -1.336,-0.249 -2.701,-0.376 -4.091,-0.376 -2.338,0 -3.954,0.515 -4.843,1.545 -0.892,1.029 -1.336,2.853 -1.336,5.469 v 21.709 h 14.945 V 48.428 H 643.492 V 60.117 L 631.803,59.031 V 48.428 h -9.519 V 38.157 h 9.519 V 15.112 c 0,-5.622 1.169,-9.686 3.507,-12.19 2.338,-2.505 6.15,-3.757 11.438,-3.757 3.896,0 7.793,0.612 11.689,1.837 M 696.512,3.841 696.846,0 h 10.436 v 48.428 h -11.69 V 12.524 c -3.173,-1.558 -6.261,-2.337 -9.267,-2.337 -2.395,0 -4.148,0.583 -5.261,1.752 -1.113,1.169 -1.67,3.035 -1.67,5.595 V 48.428 H 667.705 V 15.279 c 0,-5.065 1.322,-9.018 3.965,-11.857 2.644,-2.838 6.275,-4.257 10.897,-4.257 4.453,0 9.102,1.557 13.945,4.676 M 730.242,0 v 35.819 c 3.394,1.614 6.68,2.422 9.853,2.422 2.505,0 4.326,-0.585 5.468,-1.754 1.14,-1.169 1.712,-3.035 1.712,-5.594 V 0 h 11.69 v 33.147 c 0,5.121 -1.351,9.087 -4.05,11.899 -2.701,2.81 -6.444,4.217 -11.231,4.217 -2.338,0 -4.662,-0.376 -6.971,-1.127 -2.311,-0.753 -4.774,-1.935 -7.39,-3.549 l -0.334,3.841 H 718.553 V 0 Z m 80.991,31.729 c 0,5.23 -1.81,8.85 -5.428,10.854 l 10.438,0.083 v 8.516 l -24.214,-2.171 h -1.336 c -14.083,0 -21.125,-5.482 -21.125,-16.448 0,-6.011 2.004,-10.382 6.012,-13.109 -2.004,-1.28 -3.451,-2.659 -4.342,-4.133 -0.891,-1.476 -1.336,-3.186 -1.336,-5.134 0,-3.173 1.198,-5.596 3.591,-7.265 -4.898,-2.617 -7.348,-6.095 -7.348,-10.437 0,-4.675 1.92,-8.14 5.761,-10.395 3.841,-2.254 9.714,-3.382 17.618,-3.382 6.346,0 11.452,0.543 15.321,1.629 3.868,1.085 6.68,2.81 8.433,5.177 1.754,2.366 2.631,5.468 2.631,9.309 0,3.173 -0.641,5.732 -1.921,7.682 -1.28,1.948 -3.438,3.451 -6.471,4.509 -3.034,1.056 -7.194,1.781 -12.482,2.171 l -10.438,0.835 c -3.006,0.22 -4.509,1.389 -4.509,3.506 0,1.336 0.557,2.45 1.67,3.34 2.505,-0.614 5.455,-0.919 8.851,-0.919 13.749,0 20.624,5.261 20.624,15.782 m -27.511,-4.761 c -1.365,1.114 -2.046,2.924 -2.046,5.428 0,2.505 0.695,4.342 2.086,5.511 1.392,1.169 3.618,1.753 6.68,1.753 3.061,0 5.303,-0.584 6.722,-1.753 1.42,-1.169 2.129,-3.006 2.129,-5.511 0,-2.504 -0.709,-4.314 -2.129,-5.428 -1.419,-1.113 -3.687,-1.67 -6.805,-1.67 -3.061,0 -5.274,0.557 -6.637,1.67 M 779.587,0.501 c 1.448,-0.28 3.118,-0.501 5.01,-0.668 l 10.438,-0.835 c 3.507,-0.278 5.872,-0.752 7.096,-1.42 1.225,-0.668 1.837,-1.864 1.837,-3.59 0,-1.558 -0.416,-2.768 -1.251,-3.631 -0.835,-0.864 -2.284,-1.475 -4.342,-1.837 -2.061,-0.363 -4.956,-0.543 -8.684,-0.543 -4.566,0 -7.835,0.529 -9.81,1.585 -1.977,1.06 -2.965,2.785 -2.965,5.177 0,2.284 0.89,4.203 2.671,5.762"/>
        </g>
      </g>
    </g>
  </g>
  <text style="font-family: Armata; font-size: 89px; font-weight: 700; white-space: pre;" x="412.285" y="1035.17">Sebastian Bauer</text>
</svg>