<?xml version="1.0" encoding="UTF-8" standalone="no"?>
<!-- Uploaded to: SVG Repo, www.svgrepo.com, Generator: SVG Repo Mixer Tools -->

<svg
   height="800px"
   width="800px"
   version="1.1"
   id="Layer_1"
   viewBox="0 0 512.001 512.001"
   xml:space="preserve"
   sodipodi:docname="darts.svg"
   inkscape:version="1.4.2 (ebf0e94, 2025-05-08)"
   xmlns:inkscape="http://www.inkscape.org/namespaces/inkscape"
   xmlns:sodipodi="http://sodipodi.sourceforge.net/DTD/sodipodi-0.dtd"
   xmlns="http://www.w3.org/2000/svg"
   xmlns:svg="http://www.w3.org/2000/svg"><defs
   id="defs5" /><sodipodi:namedview
   id="namedview5"
   pagecolor="#ffffff"
   bordercolor="#000000"
   borderopacity="0.25"
   inkscape:showpageshadow="2"
   inkscape:pageopacity="0.0"
   inkscape:pagecheckerboard="0"
   inkscape:deskcolor="#d1d1d1"
   inkscape:zoom="0.9875"
   inkscape:cx="400.50633"
   inkscape:cy="400"
   inkscape:window-width="1920"
   inkscape:window-height="992"
   inkscape:window-x="-8"
   inkscape:window-y="-8"
   inkscape:window-maximized="1"
   inkscape:current-layer="Layer_1" />
<path
   style="fill:#FF6464;"
   d="M176.559,176.557l-92.05,0.012c-8.692,0.001-16.831-4.263-21.778-11.409L1.746,77.059  c-4.464-6.45,0.151-15.258,7.995-15.258h52.062V9.742c0-7.844,8.811-12.46,15.259-7.994l88.09,60.996  c7.144,4.947,11.406,13.083,11.406,21.772v92.041H176.559z"
   id="path1" />
<path
   style="fill:#ffffff;fill-opacity:1"
   d="M510.083,510.081L510.083,510.081c-2.471,2.471-6.446,2.565-9.033,0.215l-92.483-84.076  l17.655-17.655l84.076,92.483C512.649,503.635,512.554,507.611,510.083,510.081z"
   id="path2" />
<path
   style="fill:#ffffff;fill-opacity:1"
   d="M388.416,432.552l44.137-44.137l19.591,26.123c3.954,5.271,3.429,12.649-1.23,17.307l-19.069,19.068  c-4.66,4.66-12.036,5.184-17.307,1.23L388.416,432.552z"
   id="path3" />
<polygon
   style="fill:#ffffff;fill-opacity:1"
   points="169.111,192.847 388.416,432.552 432.553,388.415 192.848,169.11 "
   id="polygon3" />
<polygon
   style="fill:#ffffff;fill-opacity:1"
   points="432.553,388.415 388.416,432.552 398.514,440.125 440.126,398.512 "
   id="polygon4" />
<path
   style="fill:#D2555A;"
   d="M165.182,143.812L22.27,13.065c-2.575-2.356-6.551-2.268-9.019,0.201  c-2.468,2.469-2.557,6.444-0.201,9.019l130.748,142.911l25.305,27.658l23.737-23.737L165.182,143.812z"
   id="path4" />
<path
   style="fill:#322e2a;fill-opacity:1"
   d="M178.986,203.641c7.287-7.737,15.722-16.622,24.029-25.229l-10.167-9.302l-23.737,23.738  L178.986,203.641z"
   id="path5" />
</svg>
